<?xml version="1.0" encoding="UTF-8" standalone="no"?>
<!-- Created with Inkscape (http://www.inkscape.org/) -->
<svg xmlns:dc="http://purl.org/dc/elements/1.1/" xmlns:cc="http://creativecommons.org/ns#" xmlns:rdf="http://www.w3.org/1999/02/22-rdf-syntax-ns#" xmlns:svg="http://www.w3.org/2000/svg" xmlns="http://www.w3.org/2000/svg" xmlns:sodipodi="http://sodipodi.sourceforge.net/DTD/sodipodi-0.dtd" xmlns:inkscape="http://www.inkscape.org/namespaces/inkscape" width="1149.4703" height="216.23486" id="svg2" version="1.1" inkscape:version="0.48.2 r9819" sodipodi:docname="Fretboard_Guitar.svg">
  <defs id="defs4" />
  <sodipodi:namedview id="base" pagecolor="#ffffff" bordercolor="#666666" borderopacity="1.0" inkscape:pageopacity="0.0" inkscape:pageshadow="2" inkscape:zoom="0.98994949" inkscape:cx="618.27499" inkscape:cy="195.60956" inkscape:document-units="px" inkscape:current-layer="layer2" showgrid="false" fit-margin-top="0" fit-margin-left="0" fit-margin-right="0" fit-margin-bottom="0" inkscape:window-width="1536" inkscape:window-height="801" inkscape:window-x="-8" inkscape:window-y="-8" inkscape:window-maximized="1" />
  <metadata id="metadata7">
    <rdf:RDF>
      <cc:Work rdf:about="">
        <dc:format>image/svg+xml</dc:format>
        <dc:type rdf:resource="http://purl.org/dc/dcmitype/StillImage" />
        <dc:title />
      </cc:Work>
    </rdf:RDF>
  </metadata>
  <g inkscape:label="Fretboard" inkscape:groupmode="layer" id="layer1" transform="translate(-147.90402,-459.38761)" sodipodi:insensitive="true">
    <rect style="fill:#e8e8cf;fill-opacity:1;stroke:#040404;stroke-width:2.45352769;stroke-linejoin:bevel;stroke-miterlimit:4;stroke-opacity:1;stroke-dasharray:none;stroke-dashoffset:9.99999996" id="rect2985" width="1116.6147" height="210.85036" x="178.16479" y="461.44638" />
    <path style="fill:none;stroke:#000000;stroke-width:1.40277863;stroke-linecap:butt;stroke-linejoin:miter;stroke-miterlimit:4;stroke-opacity:1;stroke-dasharray:none;stroke-dashoffset:0" d="m 277.79252,671.39184 0,-209.94543 2.21888,212.66023" id="path3791" inkscape:connector-curvature="0" />
    <path style="fill:none;stroke:#000000;stroke-width:1.40277863;stroke-linecap:butt;stroke-linejoin:miter;stroke-miterlimit:4;stroke-opacity:1;stroke-dasharray:none;stroke-dashoffset:0" d="m 377.864,671.84431 0,-209.94544 2.21889,212.66024" id="path3791-1" inkscape:connector-curvature="0" />
    <path style="fill:none;stroke:#000000;stroke-width:1.40277863;stroke-linecap:butt;stroke-linejoin:miter;stroke-miterlimit:4;stroke-opacity:1;stroke-dasharray:none;stroke-dashoffset:0" d="m 478.15739,671.8443 0,-209.94543 2.21888,212.66023" id="path3791-1-7" inkscape:connector-curvature="0" />
    <path style="fill:none;stroke:#000000;stroke-width:1.40277863;stroke-linecap:butt;stroke-linejoin:miter;stroke-miterlimit:4;stroke-opacity:1;stroke-dasharray:none;stroke-dashoffset:0" d="m 575.12246,670.93937 0,-209.94544 2.21887,212.66024" id="path3791-1-7-1" inkscape:connector-curvature="0" />
    <path style="fill:none;stroke:#000000;stroke-width:1.40277863;stroke-linecap:butt;stroke-linejoin:miter;stroke-miterlimit:4;stroke-opacity:1;stroke-dasharray:none;stroke-dashoffset:0" d="m 668.5373,670.93936 0,-209.94543 2.21888,212.66023" id="path3791-1-7-1-1" inkscape:connector-curvature="0" />
    <path sodipodi:type="arc" style="fill:#ffffff;fill-opacity:1;stroke:#ffffff;stroke-width:1;stroke-linecap:butt;stroke-linejoin:bevel;stroke-miterlimit:4;stroke-opacity:1;stroke-dasharray:none;stroke-dashoffset:0" id="path3865" sodipodi:cx="195" sodipodi:cy="412.30878" sodipodi:rx="6.4285712" sodipodi:ry="7.5" d="m 201.42857,412.30878 c 0,4.14213 -2.87817,7.5 -6.42857,7.5 -3.5504,0 -6.42857,-3.35787 -6.42857,-7.5 0,-4.14214 2.87817,-7.5 6.42857,-7.5 3.5472,0 6.42404,3.35203 6.42857,7.49043 l -6.42857,0.01 z" transform="matrix(1.553216,0,0,1.266912,127.13056,43.607699)" sodipodi:start="0" sodipodi:end="6.2819095" />
    <path sodipodi:type="arc" style="fill:#ffffff;fill-opacity:1;stroke:#ffffff;stroke-width:1;stroke-linecap:butt;stroke-linejoin:bevel;stroke-miterlimit:4;stroke-opacity:1;stroke-dasharray:none;stroke-dashoffset:0" id="path3865-5" sodipodi:cx="195" sodipodi:cy="412.30878" sodipodi:rx="6.4285712" sodipodi:ry="7.5" d="m 201.42857,412.30878 c 0,4.14213 -2.87817,7.5 -6.42857,7.5 -3.5504,0 -6.42857,-3.35787 -6.42857,-7.5 0,-4.14214 2.87817,-7.5 6.42857,-7.5 3.5472,0 6.42404,3.35203 6.42857,7.49043 l -6.42857,0.01 z" transform="matrix(1.553216,0,0,1.266912,323.50145,44.060163)" sodipodi:start="0" sodipodi:end="6.2819095" />
    <path style="fill:none;stroke:#000000;stroke-width:1.40277863;stroke-linecap:butt;stroke-linejoin:miter;stroke-miterlimit:4;stroke-opacity:1;stroke-dasharray:none;stroke-dashoffset:0" d="m 762.83974,672.02529 0,-209.94543 2.21884,212.66023" id="path3791-1-7-1-1-2" inkscape:connector-curvature="0" />
    <path style="fill:none;stroke:#000000;stroke-width:1.40277863;stroke-linecap:butt;stroke-linejoin:miter;stroke-miterlimit:4;stroke-opacity:1;stroke-dasharray:none;stroke-dashoffset:0" d="m 856.03265,670.03442 0,-209.94542 2.2189,212.66023" id="path3791-1-7-1-1-2-7" inkscape:connector-curvature="0" />
    <path sodipodi:type="arc" style="fill:#ffffff;fill-opacity:1;stroke:#ffffff;stroke-width:1;stroke-linecap:butt;stroke-linejoin:bevel;stroke-miterlimit:4;stroke-opacity:1;stroke-dasharray:none;stroke-dashoffset:0" id="path3865-5-6" sodipodi:cx="195" sodipodi:cy="412.30878" sodipodi:rx="6.4285712" sodipodi:ry="7.5" d="m 201.42857,412.30878 c 0,4.14213 -2.87817,7.5 -6.42857,7.5 -3.5504,0 -6.42857,-3.35787 -6.42857,-7.5 0,-4.14214 2.87817,-7.5 6.42857,-7.5 3.5472,0 6.42404,3.35203 6.42857,7.49043 l -6.42857,0.01 z" transform="matrix(1.553216,0,0,1.266912,509.66549,44.241139)" sodipodi:start="0" sodipodi:end="6.2819095" />
    <path style="fill:none;stroke:#000000;stroke-width:1.40277863;stroke-linecap:butt;stroke-linejoin:miter;stroke-miterlimit:4;stroke-opacity:1;stroke-dasharray:none;stroke-dashoffset:0" d="m 945.00977,671.8443 0,-209.94543 2.21886,212.66023" id="path3791-1-7-1-1-2-7-1" inkscape:connector-curvature="0" />
    <path style="fill:none;stroke:#000000;stroke-width:1.40277863;stroke-linecap:butt;stroke-linejoin:miter;stroke-miterlimit:4;stroke-opacity:1;stroke-dasharray:none;stroke-dashoffset:0" d="m 1032.8774,670.03442 0,-209.94542 2.2189,212.66023" id="path3791-1-7-1-1-2-7-1-4" inkscape:connector-curvature="0" />
    <path sodipodi:type="arc" style="fill:#ffffff;fill-opacity:1;stroke:#ffffff;stroke-width:1;stroke-linecap:butt;stroke-linejoin:bevel;stroke-miterlimit:4;stroke-opacity:1;stroke-dasharray:none;stroke-dashoffset:0" id="path3865-5-6-2" sodipodi:cx="195" sodipodi:cy="412.30878" sodipodi:rx="6.4285712" sodipodi:ry="7.5" d="m 201.42857,412.30878 c 0,4.14213 -2.87817,7.5 -6.42857,7.5 -3.5504,0 -6.42857,-3.35787 -6.42857,-7.5 0,-4.14214 2.87817,-7.5 6.42857,-7.5 3.5472,0 6.42404,3.35203 6.42857,7.49043 l -6.42857,0.01 z" transform="matrix(1.553216,0,0,1.266912,690.72608,43.155222)" sodipodi:start="0" sodipodi:end="6.2819095" />
    <path style="fill:none;stroke:#000000;stroke-width:1.40277863;stroke-linecap:butt;stroke-linejoin:miter;stroke-miterlimit:4;stroke-opacity:1;stroke-dasharray:none;stroke-dashoffset:0" d="m 1114.3103,672.02529 0,-209.94543 2.2189,212.66023" id="path3791-1-7-1-1-2-7-1-4-3" inkscape:connector-curvature="0" />
    <path style="fill:none;stroke:#000000;stroke-width:1.40277863;stroke-linecap:butt;stroke-linejoin:miter;stroke-miterlimit:4;stroke-opacity:1;stroke-dasharray:none;stroke-dashoffset:0" d="m 1194.1901,672.20628 0,-209.94542 2.2188,212.66022" id="path3791-1-7-1-1-2-7-1-4-3-2" inkscape:connector-curvature="0" />
    <path sodipodi:type="arc" style="fill:#ffffff;fill-opacity:1;stroke:#ffffff;stroke-width:1;stroke-linecap:butt;stroke-linejoin:bevel;stroke-miterlimit:4;stroke-opacity:1;stroke-dasharray:none;stroke-dashoffset:0" id="path3865-5-6-2-1" sodipodi:cx="195" sodipodi:cy="412.30878" sodipodi:rx="6.4285712" sodipodi:ry="7.5" d="m 201.42857,412.30878 c 0,4.14213 -2.87817,7.5 -6.42857,7.5 -3.5504,0 -6.42857,-3.35787 -6.42857,-7.5 0,-4.14214 2.87817,-7.5 6.42857,-7.5 3.5472,0 6.42404,3.35203 6.42857,7.49043 l -6.42857,0.01 z" transform="matrix(1.553216,0,0,1.266912,931.25261,92.202828)" sodipodi:start="0" sodipodi:end="6.2819095" />
    <path sodipodi:type="arc" style="fill:#ffffff;fill-opacity:1;stroke:#ffffff;stroke-width:1;stroke-linecap:butt;stroke-linejoin:bevel;stroke-miterlimit:4;stroke-opacity:1;stroke-dasharray:none;stroke-dashoffset:0" id="path3865-5-6-2-1-6" sodipodi:cx="195" sodipodi:cy="412.30878" sodipodi:rx="6.4285712" sodipodi:ry="7.5" d="m 201.42857,412.30878 c 0,4.14213 -2.87817,7.5 -6.42857,7.5 -3.5504,0 -6.42857,-3.35787 -6.42857,-7.5 0,-4.14214 2.87817,-7.5 6.42857,-7.5 3.5472,0 6.42404,3.35203 6.42857,7.49043 l -6.42857,0.01 z" transform="matrix(1.553216,0,0,1.266912,932.584,-0.10077746)" sodipodi:start="0" sodipodi:end="6.2819095" />
    <rect style="fill:#e8e8cf;fill-opacity:1;stroke:#040404;stroke-width:0.38904473;stroke-linejoin:bevel;stroke-miterlimit:4;stroke-opacity:1;stroke-dasharray:none;stroke-dashoffset:9.99999996" id="rect2985-5" width="28.075054" height="210.85036" x="150.45464" y="460.81296" />
    <path style="fill:none;stroke:#818181;stroke-width:5.71681595;stroke-linecap:butt;stroke-linejoin:miter;stroke-miterlimit:4;stroke-opacity:1;stroke-dasharray:none" d="m 150.76243,652.49768 1143.31517,0" id="path4083" inkscape:connector-curvature="0" />
    <path style="fill:none;stroke:#818181;stroke-width:4.71702576;stroke-linecap:butt;stroke-linejoin:miter;stroke-miterlimit:1.20000005;stroke-opacity:1;stroke-dasharray:none" d="m 151.0427,615.62965 1143.6317,0" id="path4083-2" inkscape:connector-curvature="0" />
    <path style="fill:none;stroke:#818181;stroke-width:3.14580369;stroke-linecap:butt;stroke-linejoin:miter;stroke-miterlimit:1.20000005;stroke-opacity:1;stroke-dasharray:none" d="m 151.35502,577.62229 1144.44648,0" id="path4083-2-7" inkscape:connector-curvature="0" />
    <path style="fill:none;stroke:#818181;stroke-width:2.28756666;stroke-linecap:butt;stroke-linejoin:miter;stroke-miterlimit:1.20000005;stroke-opacity:1;stroke-dasharray:none" d="m 150.41353,542.33886 1144.15557,0" id="path4083-2-7-5" inkscape:connector-curvature="0" />
    <path style="fill:none;stroke:#818181;stroke-width:1.42992425;stroke-linecap:butt;stroke-linejoin:miter;stroke-miterlimit:1.20000005;stroke-opacity:1;stroke-dasharray:none" d="m 150.20642,510.13225 1144.46798,0" id="path4083-2-7-5-4" inkscape:connector-curvature="0" />
    <path style="fill:none;stroke:#818181;stroke-width:0.85814255;stroke-linecap:butt;stroke-linejoin:miter;stroke-miterlimit:1.20000005;stroke-opacity:1;stroke-dasharray:none" d="m 150.72286,478.44117 1144.96994,0" id="path4083-2-7-5-4-3" inkscape:connector-curvature="0" />
    <path style="fill:none;stroke:#000000;stroke-width:1.40277863;stroke-linecap:butt;stroke-linejoin:miter;stroke-miterlimit:4;stroke-opacity:1;stroke-dasharray:none;stroke-dashoffset:0" d="m 1268.0915,671.73778 0,-209.94542 2.2188,212.66022" id="path3791-1-7-1-1-2-7-1-4-3-2-1" inkscape:connector-curvature="0" />
  </g>
  <g inkscape:groupmode="layer" id="layer2" inkscape:label="Notes" transform="translate(3.658483,1.1123886)" style="display:inline">
    <path sodipodi:type="arc" style="fill:#0f389a;fill-opacity:1;stroke:none" id="path3026" sodipodi:cx="-99.285713" sodipodi:cy="96.277069" sodipodi:rx="10.714286" sodipodi:ry="10.714286" d="m -88.571427,96.277069 a 10.714286,10.714286 0 1 1 -9e-6,-0.01367 l -10.714277,0.01367 z" transform="matrix(1.2918288,0,0,1.2918288,253.70211,69.385436)" sodipodi:start="0" sodipodi:end="6.2819095" note="&quot;F&quot;">
      <title id="title3558">F</title>
    </path>
    <path sodipodi:type="arc" style="fill:#0f389a;fill-opacity:1;stroke:none" id="path3026-1" sodipodi:cx="-99.285713" sodipodi:cy="96.277069" sodipodi:rx="10.714286" sodipodi:ry="10.714286" d="m -88.571427,96.277069 a 10.714286,10.714286 0 1 1 -9e-6,-0.01367 l -10.714277,0.01367 z" transform="matrix(1.2918288,0,0,1.2918288,254.05925,33.314003)" sodipodi:start="0" sodipodi:end="6.2819095" note="&quot;A#&quot;">
      <title id="title3584">A#</title>
    </path>
    <path sodipodi:type="arc" style="fill:#0f389a;fill-opacity:1;stroke:none" id="path3026-1-5" sodipodi:cx="-99.285713" sodipodi:cy="96.277069" sodipodi:rx="10.714286" sodipodi:ry="10.714286" d="m -88.571427,96.277069 a 10.714286,10.714286 0 1 1 -9e-6,-0.01367 l -10.714277,0.01367 z" transform="matrix(1.2918288,0,0,1.2918288,254.05925,-3.1145686)" sodipodi:start="0" sodipodi:end="6.2819095" note="&quot;G#&quot;">
      <title id="title3616">D#</title>
    </path>
    <path sodipodi:type="arc" style="fill:#0f389a;fill-opacity:1;stroke:none" id="path3026-1-5-2" sodipodi:cx="-99.285713" sodipodi:cy="96.277069" sodipodi:rx="10.714286" sodipodi:ry="10.714286" d="m -88.571427,96.277069 a 10.714286,10.714286 0 1 1 -9e-6,-0.01367 l -10.714277,0.01367 z" transform="matrix(1.2918288,0,0,1.2918288,254.77353,-38.257425)" sodipodi:start="0" sodipodi:end="6.2819095" note="&quot;G#&quot;">
      <title id="title3646">G#</title>
    </path>
    <path sodipodi:type="arc" style="fill:#0f389a;fill-opacity:1;stroke:none" id="path3026-1-5-2-7" sodipodi:cx="-99.285713" sodipodi:cy="96.277069" sodipodi:rx="10.714286" sodipodi:ry="10.714286" d="m -88.571427,96.277069 a 10.714286,10.714286 0 1 1 -9e-6,-0.01367 l -10.714277,0.01367 z" transform="matrix(1.2918288,0,0,1.2918288,254.05925,-72.685997)" sodipodi:start="0" sodipodi:end="6.2819095" note="&quot;C&quot;">
      <title id="title3668">C</title>
    </path>
    <path sodipodi:type="arc" style="fill:#0f389a;fill-opacity:1;stroke:none" id="path3026-1-5-2-7-6" sodipodi:cx="-99.285713" sodipodi:cy="96.277069" sodipodi:rx="10.714286" sodipodi:ry="10.714286" d="m -88.571427,96.277069 a 10.714286,10.714286 0 1 1 -9e-6,-0.01367 l -10.714277,0.01367 z" transform="matrix(1.2918288,0,0,1.2918288,253.34497,-104.686)" sodipodi:start="0" sodipodi:end="6.2819095" note="&quot;F&quot;">
      <title id="title3690">F</title>
    </path>
    <path sodipodi:type="arc" style="fill:#0f389a;fill-opacity:1;stroke:none;opacity:0;opacity:0" id="path3026-14" sodipodi:cx="-99.285713" sodipodi:cy="96.277069" sodipodi:rx="10.714286" sodipodi:ry="10.714286" d="m -88.571427,96.277069 a 10.714286,10.714286 0 1 1 -9e-6,-0.01367 l -10.714277,0.01367 z" transform="matrix(1.2918288,0,0,1.2918288,139.55925,69.385434)" sodipodi:start="0" sodipodi:end="6.2819095" note="&quot;E&quot;">
      <title id="title3556">E</title>
    </path>
    <path sodipodi:type="arc" style="fill:#0f389a;fill-opacity:1;stroke:none;opacity:0;opacity:0" id="path3026-1-2" sodipodi:cx="-99.285713" sodipodi:cy="96.277069" sodipodi:rx="10.714286" sodipodi:ry="10.714286" d="m -88.571427,96.277069 a 10.714286,10.714286 0 1 1 -9e-6,-0.01367 l -10.714277,0.01367 z" transform="matrix(1.2918288,0,0,1.2918288,139.91639,33.314004)" sodipodi:start="0" sodipodi:end="6.2819095" note="&quot;A&quot;">
      <title id="title3582">A</title>
    </path>
    <path sodipodi:type="arc" style="fill:#0f389a;fill-opacity:1;stroke:none;opacity:0;opacity:0" id="path3026-1-5-3" sodipodi:cx="-99.285713" sodipodi:cy="96.277069" sodipodi:rx="10.714286" sodipodi:ry="10.714286" d="m -88.571427,96.277069 a 10.714286,10.714286 0 1 1 -9e-6,-0.01367 l -10.714277,0.01367 z" transform="matrix(1.2918288,0,0,1.2918288,139.91639,-3.1145679)" sodipodi:start="0" sodipodi:end="6.2819095" note="&quot;D&quot;">
      <title id="title3608">D</title>
    </path>
    <path sodipodi:type="arc" style="fill:#3fb1ea;fill-opacity:1;stroke:none;opacity:0;opacity:0" id="path3026-1-5-2-2" sodipodi:cx="-99.285713" sodipodi:cy="96.277069" sodipodi:rx="10.714286" sodipodi:ry="10.714286" d="m -88.571427,96.277069 a 10.714286,10.714286 0 1 1 -9e-6,-0.01367 l -10.714277,0.01367 z" transform="matrix(1.2918288,0,0,1.2918288,140.63067,-38.257424)" sodipodi:start="0" sodipodi:end="6.2819095" note="&quot;G&quot;">
      <title id="title3610">G</title>
    </path>
    <path sodipodi:type="arc" style="fill:#0f389a;fill-opacity:1;stroke:none;opacity:0;opacity:0" id="path3026-1-5-2-7-2" sodipodi:cx="-99.285713" sodipodi:cy="96.277069" sodipodi:rx="10.714286" sodipodi:ry="10.714286" d="m -88.571427,96.277069 a 10.714286,10.714286 0 1 1 -9e-6,-0.01367 l -10.714277,0.01367 z" transform="matrix(1.2918288,0,0,1.2918288,139.91639,-72.685996)" sodipodi:start="0" sodipodi:end="6.2819095" note="&quot;B&quot;">
      <title id="title3612">B</title>
    </path>
    <path sodipodi:type="arc" style="fill:#0f389a;fill-opacity:1;stroke:none;opacity:0;opacity:0" id="path3026-1-5-2-7-6-1" sodipodi:cx="-99.285713" sodipodi:cy="96.277069" sodipodi:rx="10.714286" sodipodi:ry="10.714286" d="m -88.571427,96.277069 a 10.714286,10.714286 0 1 1 -9e-6,-0.01367 l -10.714277,0.01367 z" transform="matrix(1.2918288,0,0,1.2918288,139.20211,-104.686)" sodipodi:start="0" sodipodi:end="6.2819095" note="&quot;E&quot;">
      <title id="title3614">E</title>
    </path>
    <path sodipodi:type="arc" style="fill:#0f389a;fill-opacity:1;stroke:none" id="path3026-8" sodipodi:cx="-99.285713" sodipodi:cy="96.277069" sodipodi:rx="10.714286" sodipodi:ry="10.714286" d="m -88.571427,96.277069 a 10.714286,10.714286 0 1 1 -9e-6,-0.01367 l -10.714277,0.01367 z" transform="matrix(1.2918288,0,0,1.2918288,352.98783,69.385436)" sodipodi:start="0" sodipodi:end="6.2819095" note="&quot;F#&quot;">
      <title id="title3560">F#</title>
    </path>
    <path sodipodi:type="arc" style="fill:#0f389a;fill-opacity:1;stroke:none;opacity:0;opacity:0" id="path3026-1-57" sodipodi:cx="-99.285713" sodipodi:cy="96.277069" sodipodi:rx="10.714286" sodipodi:ry="10.714286" d="m -88.571427,96.277069 a 10.714286,10.714286 0 1 1 -9e-6,-0.01367 l -10.714277,0.01367 z" transform="matrix(1.2918288,0,0,1.2918288,353.34497,33.314003)" sodipodi:start="0" sodipodi:end="6.2819095" note="&quot;B&quot;">
      <title id="title3586">B</title>
    </path>
    <path sodipodi:type="arc" style="fill:#0f389a;fill-opacity:1;stroke:none;opacity:0;opacity:0" id="path3026-1-5-6" sodipodi:cx="-99.285713" sodipodi:cy="96.277069" sodipodi:rx="10.714286" sodipodi:ry="10.714286" d="m -88.571427,96.277069 a 10.714286,10.714286 0 1 1 -9e-6,-0.01367 l -10.714277,0.01367 z" transform="matrix(1.2918288,0,0,1.2918288,353.34497,-3.1145686)" sodipodi:start="0" sodipodi:end="6.2819095" note="&quot;A&quot;">
      <title id="title3618">E</title>
    </path>
    <path sodipodi:type="arc" style="fill:#0f389a;fill-opacity:1;stroke:none;opacity:0;opacity:0" id="path3026-1-5-2-1" sodipodi:cx="-99.285713" sodipodi:cy="96.277069" sodipodi:rx="10.714286" sodipodi:ry="10.714286" d="m -88.571427,96.277069 a 10.714286,10.714286 0 1 1 -9e-6,-0.01367 l -10.714277,0.01367 z" transform="matrix(1.2918288,0,0,1.2918288,354.05925,-38.257425)" sodipodi:start="0" sodipodi:end="6.2819095" note="&quot;A&quot;">
      <title id="title3648">A</title>
    </path>
    <path sodipodi:type="arc" style="fill:#3fb1ea;fill-opacity:1;stroke:none" id="path3026-1-5-2-7-8" sodipodi:cx="-99.285713" sodipodi:cy="96.277069" sodipodi:rx="10.714286" sodipodi:ry="10.714286" d="m -88.571427,96.277069 a 10.714286,10.714286 0 1 1 -9e-6,-0.01367 l -10.714277,0.01367 z" transform="matrix(1.2918288,0,0,1.2918288,353.34497,-72.685997)" sodipodi:start="0" sodipodi:end="6.2819095" note="&quot;C#&quot;">
      <title id="title3670">C#</title>
    </path>
    <path sodipodi:type="arc" style="fill:#0f389a;fill-opacity:1;stroke:none" id="path3026-1-5-2-7-6-9" sodipodi:cx="-99.285713" sodipodi:cy="96.277069" sodipodi:rx="10.714286" sodipodi:ry="10.714286" d="m -88.571427,96.277069 a 10.714286,10.714286 0 1 1 -9e-6,-0.01367 l -10.714277,0.01367 z" transform="matrix(1.2918288,0,0,1.2918288,352.63069,-104.686)" sodipodi:start="0" sodipodi:end="6.2819095" note="&quot;F#&quot;">
      <title id="title3692">F#</title>
    </path>
    <path sodipodi:type="arc" style="fill:#3fb1ea;fill-opacity:1;stroke:none;opacity:0;opacity:0" id="path3026-8-7" sodipodi:cx="-99.285713" sodipodi:cy="96.277069" sodipodi:rx="10.714286" sodipodi:ry="10.714286" d="m -88.571427,96.277069 a 10.714286,10.714286 0 1 1 -9e-6,-0.01367 l -10.714277,0.01367 z" transform="matrix(1.2918288,0,0,1.2918288,455.13068,69.385436)" sodipodi:start="0" sodipodi:end="6.2819095" note="&quot;G&quot;">
      <title id="title3562">G</title>
    </path>
    <path sodipodi:type="arc" style="fill:#0f389a;fill-opacity:1;stroke:none" id="path3026-1-57-9" sodipodi:cx="-99.285713" sodipodi:cy="96.277069" sodipodi:rx="10.714286" sodipodi:ry="10.714286" d="m -88.571427,96.277069 a 10.714286,10.714286 0 1 1 -9e-6,-0.01367 l -10.714277,0.01367 z" transform="matrix(1.2918288,0,0,1.2918288,455.48782,33.314003)" sodipodi:start="0" sodipodi:end="6.2819095" note="&quot;C&quot;">
      <title id="title3588">C</title>
    </path>
    <path sodipodi:type="arc" style="fill:#0f389a;fill-opacity:1;stroke:none" id="path3026-1-5-6-5" sodipodi:cx="-99.285713" sodipodi:cy="96.277069" sodipodi:rx="10.714286" sodipodi:ry="10.714286" d="m -88.571427,96.277069 a 10.714286,10.714286 0 1 1 -9e-6,-0.01367 l -10.714277,0.01367 z" transform="matrix(1.2918288,0,0,1.2918288,455.48782,-3.1145686)" sodipodi:start="0" sodipodi:end="6.2819095" note="&quot;F&quot;">
      <title id="title3620">F</title>
    </path>
    <path sodipodi:type="arc" style="fill:#0f389a;fill-opacity:1;stroke:none" id="path3026-1-5-2-1-4" sodipodi:cx="-99.285713" sodipodi:cy="96.277069" sodipodi:rx="10.714286" sodipodi:ry="10.714286" d="m -88.571427,96.277069 a 10.714286,10.714286 0 1 1 -9e-6,-0.01367 l -10.714277,0.01367 z" transform="matrix(1.2918288,0,0,1.2918288,456.2021,-38.257425)" sodipodi:start="0" sodipodi:end="6.2819095" note="&quot;A#&quot;">
      <title id="title3650">A#</title>
    </path>
    <path sodipodi:type="arc" style="fill:#0f389a;fill-opacity:1;stroke:none;opacity:0;opacity:0" id="path3026-1-5-2-7-8-3" sodipodi:cx="-99.285713" sodipodi:cy="96.277069" sodipodi:rx="10.714286" sodipodi:ry="10.714286" d="m -88.571427,96.277069 a 10.714286,10.714286 0 1 1 -9e-6,-0.01367 l -10.714277,0.01367 z" transform="matrix(1.2918288,0,0,1.2918288,455.48782,-72.685997)" sodipodi:start="0" sodipodi:end="6.2819095" note="&quot;D&quot;">
      <title id="title3672">D</title>
    </path>
    <path sodipodi:type="arc" style="fill:#3fb1ea;fill-opacity:1;stroke:none;opacity:0;opacity:0" id="path3026-1-5-2-7-6-9-1" sodipodi:cx="-99.285713" sodipodi:cy="96.277069" sodipodi:rx="10.714286" sodipodi:ry="10.714286" d="m -88.571427,96.277069 a 10.714286,10.714286 0 1 1 -9e-6,-0.01367 l -10.714277,0.01367 z" transform="matrix(1.2918288,0,0,1.2918288,454.77354,-104.686)" sodipodi:start="0" sodipodi:end="6.2819095" note="&quot;G&quot;">
      <title id="title3702">G</title>
    </path>
    <path sodipodi:type="arc" style="fill:#0f389a;fill-opacity:1;stroke:none" id="path3026-8-7-3" sodipodi:cx="-99.285713" sodipodi:cy="96.277069" sodipodi:rx="10.714286" sodipodi:ry="10.714286" d="m -88.571427,96.277069 a 10.714286,10.714286 0 1 1 -9e-6,-0.01367 l -10.714277,0.01367 z" transform="matrix(1.2918288,0,0,1.2918288,548.70211,69.385436)" sodipodi:start="0" sodipodi:end="6.2819095" note="&quot;G#&quot;">
      <title id="title3564">G#</title>
    </path>
    <path sodipodi:type="arc" style="fill:#3fb1ea;fill-opacity:1;stroke:none" id="path3026-1-57-9-3" sodipodi:cx="-99.285713" sodipodi:cy="96.277069" sodipodi:rx="10.714286" sodipodi:ry="10.714286" d="m -88.571427,96.277069 a 10.714286,10.714286 0 1 1 -9e-6,-0.01367 l -10.714277,0.01367 z" transform="matrix(1.2918288,0,0,1.2918288,549.05925,33.314003)" sodipodi:start="0" sodipodi:end="6.2819095" note="&quot;C#&quot;">
      <title id="title3590">C#</title>
    </path>
    <path sodipodi:type="arc" style="fill:#0f389a;fill-opacity:1;stroke:none" id="path3026-1-5-6-5-4" sodipodi:cx="-99.285713" sodipodi:cy="96.277069" sodipodi:rx="10.714286" sodipodi:ry="10.714286" d="m -88.571427,96.277069 a 10.714286,10.714286 0 1 1 -9e-6,-0.01367 l -10.714277,0.01367 z" transform="matrix(1.2918288,0,0,1.2918288,549.05925,-3.1145686)" sodipodi:start="0" sodipodi:end="6.2819095" note="&quot;F#&quot;">
      <title id="title3622">F#</title>
    </path>
    <path sodipodi:type="arc" style="fill:#0f389a;fill-opacity:1;stroke:none;opacity:0;opacity:0" id="path3026-1-5-2-1-4-1" sodipodi:cx="-99.285713" sodipodi:cy="96.277069" sodipodi:rx="10.714286" sodipodi:ry="10.714286" d="m -88.571427,96.277069 a 10.714286,10.714286 0 1 1 -9e-6,-0.01367 l -10.714277,0.01367 z" transform="matrix(1.2918288,0,0,1.2918288,549.77353,-38.257425)" sodipodi:start="0" sodipodi:end="6.2819095" note="&quot;B&quot;">
      <title id="title3652">B</title>
    </path>
    <path sodipodi:type="arc" style="fill:#0f389a;fill-opacity:1;stroke:none" id="path3026-1-5-2-7-8-3-1" sodipodi:cx="-99.285713" sodipodi:cy="96.277069" sodipodi:rx="10.714286" sodipodi:ry="10.714286" d="m -88.571427,96.277069 a 10.714286,10.714286 0 1 1 -9e-6,-0.01367 l -10.714277,0.01367 z" transform="matrix(1.2918288,0,0,1.2918288,549.05925,-72.685997)" sodipodi:start="0" sodipodi:end="6.2819095" note="&quot;D#&quot;">
      <title id="title3674">D#</title>
    </path>
    <path sodipodi:type="arc" style="fill:#0f389a;fill-opacity:1;stroke:none" id="path3026-1-5-2-7-6-9-1-3" sodipodi:cx="-99.285713" sodipodi:cy="96.277069" sodipodi:rx="10.714286" sodipodi:ry="10.714286" d="m -88.571427,96.277069 a 10.714286,10.714286 0 1 1 -9e-6,-0.01367 l -10.714277,0.01367 z" transform="matrix(1.2918288,0,0,1.2918288,548.34497,-104.686)" sodipodi:start="0" sodipodi:end="6.2819095" note="&quot;G#&quot;">
      <title id="title3704">G#</title>
    </path>
    <path sodipodi:type="arc" style="fill:#0f389a;fill-opacity:1;stroke:none;opacity:0;opacity:0" id="path3026-8-7-3-7" sodipodi:cx="-99.285713" sodipodi:cy="96.277069" sodipodi:rx="10.714286" sodipodi:ry="10.714286" d="m -88.571427,96.277069 a 10.714286,10.714286 0 1 1 -9e-6,-0.01367 l -10.714277,0.01367 z" transform="matrix(1.2918288,0,0,1.2918288,643.84497,69.385436)" sodipodi:start="0" sodipodi:end="6.2819095" note="&quot;A&quot;">
      <title id="title3566">A</title>
    </path>
    <path sodipodi:type="arc" style="fill:#0f389a;fill-opacity:1;stroke:none;opacity:0;opacity:0" id="path3026-1-57-9-3-4" sodipodi:cx="-99.285713" sodipodi:cy="96.277069" sodipodi:rx="10.714286" sodipodi:ry="10.714286" d="m -88.571427,96.277069 a 10.714286,10.714286 0 1 1 -9e-6,-0.01367 l -10.714277,0.01367 z" transform="matrix(1.2918288,0,0,1.2918288,644.20211,33.314003)" sodipodi:start="0" sodipodi:end="6.2819095" note="&quot;D&quot;">
      <title id="title3592">D</title>
    </path>
    <path sodipodi:type="arc" style="fill:#3fb1ea;fill-opacity:1;stroke:none;opacity:0;opacity:0" id="path3026-1-5-6-5-4-2" sodipodi:cx="-99.285713" sodipodi:cy="96.277069" sodipodi:rx="10.714286" sodipodi:ry="10.714286" d="m -88.571427,96.277069 a 10.714286,10.714286 0 1 1 -9e-6,-0.01367 l -10.714277,0.01367 z" transform="matrix(1.2918288,0,0,1.2918288,644.20211,-3.1145686)" sodipodi:start="0" sodipodi:end="6.2819095" note="&quot;G&quot;">
      <title id="title3624">G</title>
    </path>
    <path sodipodi:type="arc" style="fill:#0f389a;fill-opacity:1;stroke:none" id="path3026-1-5-2-1-4-1-7" sodipodi:cx="-99.285713" sodipodi:cy="96.277069" sodipodi:rx="10.714286" sodipodi:ry="10.714286" d="m -88.571427,96.277069 a 10.714286,10.714286 0 1 1 -9e-6,-0.01367 l -10.714277,0.01367 z" transform="matrix(1.2918288,0,0,1.2918288,644.91639,-38.257425)" sodipodi:start="0" sodipodi:end="6.2819095" note="&quot;C&quot;">
      <title id="title3654">C</title>
    </path>
    <path sodipodi:type="arc" style="fill:#0f389a;fill-opacity:1;stroke:none;opacity:0;opacity:0" id="path3026-1-5-2-7-8-3-1-7" sodipodi:cx="-99.285713" sodipodi:cy="96.277069" sodipodi:rx="10.714286" sodipodi:ry="10.714286" d="m -88.571427,96.277069 a 10.714286,10.714286 0 1 1 -9e-6,-0.01367 l -10.714277,0.01367 z" transform="matrix(1.2918288,0,0,1.2918288,644.20211,-72.685997)" sodipodi:start="0" sodipodi:end="6.2819095" note="&quot;E&quot;">
      <title id="title3676">E</title>
    </path>
    <path sodipodi:type="arc" style="fill:#0f389a;fill-opacity:1;stroke:none;opacity:0;opacity:0" id="path3026-1-5-2-7-6-9-1-3-9" sodipodi:cx="-99.285713" sodipodi:cy="96.277069" sodipodi:rx="10.714286" sodipodi:ry="10.714286" d="m -88.571427,96.277069 a 10.714286,10.714286 0 1 1 -9e-6,-0.01367 l -10.714277,0.01367 z" transform="matrix(1.2918288,0,0,1.2918288,643.48783,-104.686)" sodipodi:start="0" sodipodi:end="6.2819095" note="&quot;A&quot;">
      <title id="title3706">A</title>
    </path>
    <path sodipodi:type="arc" style="fill:#0f389a;fill-opacity:1;stroke:none" id="path3026-8-7-3-7-1" sodipodi:cx="-99.285713" sodipodi:cy="96.277069" sodipodi:rx="10.714286" sodipodi:ry="10.714286" d="m -88.571427,96.277069 a 10.714286,10.714286 0 1 1 -9e-6,-0.01367 l -10.714277,0.01367 z" transform="matrix(1.2918288,0,0,1.2918288,736.55926,69.385436)" sodipodi:start="0" sodipodi:end="6.2819095" note="&quot;A#&quot;">
      <title id="title3568">A#</title>
    </path>
    <path sodipodi:type="arc" style="fill:#0f389a;fill-opacity:1;stroke:none" id="path3026-1-57-9-3-4-9" sodipodi:cx="-99.285713" sodipodi:cy="96.277069" sodipodi:rx="10.714286" sodipodi:ry="10.714286" d="m -88.571427,96.277069 a 10.714286,10.714286 0 1 1 -9e-6,-0.01367 l -10.714277,0.01367 z" transform="matrix(1.2918288,0,0,1.2918288,736.9164,33.314003)" sodipodi:start="0" sodipodi:end="6.2819095" note="&quot;D#&quot;">
      <title id="title3594">D#</title>
    </path>
    <path sodipodi:type="arc" style="fill:#0f389a;fill-opacity:1;stroke:none" id="path3026-1-5-6-5-4-2-8" sodipodi:cx="-99.285713" sodipodi:cy="96.277069" sodipodi:rx="10.714286" sodipodi:ry="10.714286" d="m -88.571427,96.277069 a 10.714286,10.714286 0 1 1 -9e-6,-0.01367 l -10.714277,0.01367 z" transform="matrix(1.2918288,0,0,1.2918288,736.9164,-3.1145686)" sodipodi:start="0" sodipodi:end="6.2819095" note="&quot;G#&quot;">
      <title id="title3626">G#</title>
    </path>
    <path sodipodi:type="arc" style="fill:#3fb1ea;fill-opacity:1;stroke:none" id="path3026-1-5-2-1-4-1-7-6" sodipodi:cx="-99.285713" sodipodi:cy="96.277069" sodipodi:rx="10.714286" sodipodi:ry="10.714286" d="m -88.571427,96.277069 a 10.714286,10.714286 0 1 1 -9e-6,-0.01367 l -10.714277,0.01367 z" transform="matrix(1.2918288,0,0,1.2918288,737.63068,-38.257425)" sodipodi:start="0" sodipodi:end="6.2819095" note="&quot;C#&quot;">
      <title id="title3656">C#</title>
    </path>
    <path sodipodi:type="arc" style="fill:#0f389a;fill-opacity:1;stroke:none" id="path3026-1-5-2-7-8-3-1-7-5" sodipodi:cx="-99.285713" sodipodi:cy="96.277069" sodipodi:rx="10.714286" sodipodi:ry="10.714286" d="m -88.571427,96.277069 a 10.714286,10.714286 0 1 1 -9e-6,-0.01367 l -10.714277,0.01367 z" transform="matrix(1.2918288,0,0,1.2918288,736.9164,-72.685997)" sodipodi:start="0" sodipodi:end="6.2819095" note="&quot;F&quot;">
      <title id="title3678">F</title>
    </path>
    <path sodipodi:type="arc" style="fill:#0f389a;fill-opacity:1;stroke:none" id="path3026-1-5-2-7-6-9-1-3-9-0" sodipodi:cx="-99.285713" sodipodi:cy="96.277069" sodipodi:rx="10.714286" sodipodi:ry="10.714286" d="m -88.571427,96.277069 a 10.714286,10.714286 0 1 1 -9e-6,-0.01367 l -10.714277,0.01367 z" transform="matrix(1.2918288,0,0,1.2918288,736.20212,-104.686)" sodipodi:start="0" sodipodi:end="6.2819095" note="&quot;A#&quot;">
      <title id="title3708">A#</title>
    </path>
    <path sodipodi:type="arc" style="fill:#0f389a;fill-opacity:1;stroke:none;opacity:0;opacity:0" id="path3026-8-7-3-7-1-8" sodipodi:cx="-99.285713" sodipodi:cy="96.277069" sodipodi:rx="10.714286" sodipodi:ry="10.714286" d="m -88.571427,96.277069 a 10.714286,10.714286 0 1 1 -9e-6,-0.01367 l -10.714277,0.01367 z" transform="matrix(1.2918288,0,0,1.2918288,829.41639,69.385436)" sodipodi:start="0" sodipodi:end="6.2819095" note="&quot;B&quot;">
      <title id="title3570">B</title>
    </path>
    <path sodipodi:type="arc" style="fill:#0f389a;fill-opacity:1;stroke:none;opacity:0;opacity:0" id="path3026-1-57-9-3-4-9-6" sodipodi:cx="-99.285713" sodipodi:cy="96.277069" sodipodi:rx="10.714286" sodipodi:ry="10.714286" d="m -88.571427,96.277069 a 10.714286,10.714286 0 1 1 -9e-6,-0.01367 l -10.714277,0.01367 z" transform="matrix(1.2918288,0,0,1.2918288,829.77353,33.314003)" sodipodi:start="0" sodipodi:end="6.2819095" note="&quot;E&quot;">
      <title id="title3596">E</title>
    </path>
    <path sodipodi:type="arc" style="fill:#0f389a;fill-opacity:1;stroke:none;opacity:0;opacity:0" id="path3026-1-5-6-5-4-2-8-0" sodipodi:cx="-99.285713" sodipodi:cy="96.277069" sodipodi:rx="10.714286" sodipodi:ry="10.714286" d="m -88.571427,96.277069 a 10.714286,10.714286 0 1 1 -9e-6,-0.01367 l -10.714277,0.01367 z" transform="matrix(1.2918288,0,0,1.2918288,829.77353,-3.1145686)" sodipodi:start="0" sodipodi:end="6.2819095" note="&quot;A&quot;">
      <title id="title3628">A</title>
    </path>
    <path sodipodi:type="arc" style="fill:#0f389a;fill-opacity:1;stroke:none;opacity:0;opacity:0" id="path3026-1-5-2-1-4-1-7-6-2" sodipodi:cx="-99.285713" sodipodi:cy="96.277069" sodipodi:rx="10.714286" sodipodi:ry="10.714286" d="m -88.571427,96.277069 a 10.714286,10.714286 0 1 1 -9e-6,-0.01367 l -10.714277,0.01367 z" transform="matrix(1.2918288,0,0,1.2918288,830.48781,-38.257425)" sodipodi:start="0" sodipodi:end="6.2819095" note="&quot;D&quot;">
      <title id="title3658">D</title>
    </path>
    <path sodipodi:type="arc" style="fill:#0f389a;fill-opacity:1;stroke:none" id="path3026-1-5-2-7-8-3-1-7-5-4" sodipodi:cx="-99.285713" sodipodi:cy="96.277069" sodipodi:rx="10.714286" sodipodi:ry="10.714286" d="m -88.571427,96.277069 a 10.714286,10.714286 0 1 1 -9e-6,-0.01367 l -10.714277,0.01367 z" transform="matrix(1.2918288,0,0,1.2918288,829.77353,-72.685997)" sodipodi:start="0" sodipodi:end="6.2819095" note="&quot;F#&quot;">
      <title id="title3680">F#</title>
    </path>
    <path sodipodi:type="arc" style="fill:#0f389a;fill-opacity:1;stroke:none;opacity:0;opacity:0" id="path3026-1-5-2-7-6-9-1-3-9-0-8" sodipodi:cx="-99.285713" sodipodi:cy="96.277069" sodipodi:rx="10.714286" sodipodi:ry="10.714286" d="m -88.571427,96.277069 a 10.714286,10.714286 0 1 1 -9e-6,-0.01367 l -10.714277,0.01367 z" transform="matrix(1.2918288,0,0,1.2918288,829.05925,-104.686)" sodipodi:start="0" sodipodi:end="6.2819095" note="&quot;B&quot;">
      <title id="title3710">B</title>
    </path>
    <path sodipodi:type="arc" style="fill:#0f389a;fill-opacity:1;stroke:none" id="path3026-8-7-3-7-1-5" sodipodi:cx="-99.285713" sodipodi:cy="96.277069" sodipodi:rx="10.714286" sodipodi:ry="10.714286" d="m -88.571427,96.277069 a 10.714286,10.714286 0 1 1 -9e-6,-0.01367 l -10.714277,0.01367 z" transform="matrix(1.2918288,0,0,1.2918288,919.4164,69.385436)" sodipodi:start="0" sodipodi:end="6.2819095" note="&quot;C&quot;">
      <title id="title3572">C</title>
    </path>
    <path sodipodi:type="arc" style="fill:#0f389a;fill-opacity:1;stroke:none" id="path3026-1-57-9-3-4-9-0" sodipodi:cx="-99.285713" sodipodi:cy="96.277069" sodipodi:rx="10.714286" sodipodi:ry="10.714286" d="m -88.571427,96.277069 a 10.714286,10.714286 0 1 1 -9e-6,-0.01367 l -10.714277,0.01367 z" transform="matrix(1.2918288,0,0,1.2918288,919.77354,33.314003)" sodipodi:start="0" sodipodi:end="6.2819095" note="&quot;F&quot;">
      <title id="title3598">F</title>
    </path>
    <path sodipodi:type="arc" style="fill:#0f389a;fill-opacity:1;stroke:none" id="path3026-1-5-6-5-4-2-8-9" sodipodi:cx="-99.285713" sodipodi:cy="96.277069" sodipodi:rx="10.714286" sodipodi:ry="10.714286" d="m -88.571427,96.277069 a 10.714286,10.714286 0 1 1 -9e-6,-0.01367 l -10.714277,0.01367 z" transform="matrix(1.2918288,0,0,1.2918288,919.77354,-3.1145686)" sodipodi:start="0" sodipodi:end="6.2819095" note="&quot;A#&quot;">
      <title id="title3630">A#</title>
    </path>
    <path sodipodi:type="arc" style="fill:#0f389a;fill-opacity:1;stroke:none" id="path3026-1-5-2-1-4-1-7-6-0" sodipodi:cx="-99.285713" sodipodi:cy="96.277069" sodipodi:rx="10.714286" sodipodi:ry="10.714286" d="m -88.571427,96.277069 a 10.714286,10.714286 0 1 1 -9e-6,-0.01367 l -10.714277,0.01367 z" transform="matrix(1.2918288,0,0,1.2918288,920.48782,-38.257425)" sodipodi:start="0" sodipodi:end="6.2819095" note="&quot;D#&quot;">
      <title id="title3660">D#</title>
    </path>
    <path sodipodi:type="arc" style="fill:#3fb1ea;fill-opacity:1;stroke:none;opacity:0;opacity:0" id="path3026-1-5-2-7-8-3-1-7-5-0" sodipodi:cx="-99.285713" sodipodi:cy="96.277069" sodipodi:rx="10.714286" sodipodi:ry="10.714286" d="m -88.571427,96.277069 a 10.714286,10.714286 0 1 1 -9e-6,-0.01367 l -10.714277,0.01367 z" transform="matrix(1.2918288,0,0,1.2918288,919.77354,-72.685997)" sodipodi:start="0" sodipodi:end="6.2819095" note="&quot;G&quot;">
      <title id="title3682">G</title>
    </path>
    <path sodipodi:type="arc" style="fill:#0f389a;fill-opacity:1;stroke:none" id="path3026-1-5-2-7-6-9-1-3-9-0-6" sodipodi:cx="-99.285713" sodipodi:cy="96.277069" sodipodi:rx="10.714286" sodipodi:ry="10.714286" d="m -88.571427,96.277069 a 10.714286,10.714286 0 1 1 -9e-6,-0.01367 l -10.714277,0.01367 z" transform="matrix(1.2918288,0,0,1.2918288,919.05926,-104.686)" sodipodi:start="0" sodipodi:end="6.2819095" note="&quot;C&quot;">
      <title id="title3712">C</title>
    </path>
    <path sodipodi:type="arc" style="fill:#3fb1ea;fill-opacity:1;stroke:none" id="path3026-8-7-3-7-1-3" sodipodi:cx="-99.285713" sodipodi:cy="96.277069" sodipodi:rx="10.714286" sodipodi:ry="10.714286" d="m -88.571427,96.277069 a 10.714286,10.714286 0 1 1 -9e-6,-0.01367 l -10.714277,0.01367 z" transform="matrix(1.2918288,0,0,1.2918288,1008.7021,69.385436)" sodipodi:start="0" sodipodi:end="6.2819095" note="&quot;C#&quot;">
      <title id="title3574">C#</title>
    </path>
    <path sodipodi:type="arc" style="fill:#0f389a;fill-opacity:1;stroke:none" id="path3026-1-57-9-3-4-9-8" sodipodi:cx="-99.285713" sodipodi:cy="96.277069" sodipodi:rx="10.714286" sodipodi:ry="10.714286" d="m -88.571427,96.277069 a 10.714286,10.714286 0 1 1 -9e-6,-0.01367 l -10.714277,0.01367 z" transform="matrix(1.2918288,0,0,1.2918288,1009.0593,33.314003)" sodipodi:start="0" sodipodi:end="6.2819095" note="&quot;F#&quot;">
      <title id="title3600">F#</title>
    </path>
    <path sodipodi:type="arc" style="fill:#0f389a;fill-opacity:1;stroke:none;opacity:0;opacity:0" id="path3026-1-5-6-5-4-2-8-93" sodipodi:cx="-99.285713" sodipodi:cy="96.277069" sodipodi:rx="10.714286" sodipodi:ry="10.714286" d="m -88.571427,96.277069 a 10.714286,10.714286 0 1 1 -9e-6,-0.01367 l -10.714277,0.01367 z" transform="matrix(1.2918288,0,0,1.2918288,1009.0593,-3.1145686)" sodipodi:start="0" sodipodi:end="6.2819095" note="&quot;B&quot;">
      <title id="title3632">B</title>
    </path>
    <path sodipodi:type="arc" style="fill:#0f389a;fill-opacity:1;stroke:none;opacity:0;opacity:0" id="path3026-1-5-2-1-4-1-7-6-4" sodipodi:cx="-99.285713" sodipodi:cy="96.277069" sodipodi:rx="10.714286" sodipodi:ry="10.714286" d="m -88.571427,96.277069 a 10.714286,10.714286 0 1 1 -9e-6,-0.01367 l -10.714277,0.01367 z" transform="matrix(1.2918288,0,0,1.2918288,1009.7735,-38.257425)" sodipodi:start="0" sodipodi:end="6.2819095" note="&quot;E&quot;">
      <title id="title3662">E</title>
    </path>
    <path sodipodi:type="arc" style="fill:#0f389a;fill-opacity:1;stroke:none" id="path3026-1-5-2-7-8-3-1-7-5-46" sodipodi:cx="-99.285713" sodipodi:cy="96.277069" sodipodi:rx="10.714286" sodipodi:ry="10.714286" d="m -88.571427,96.277069 a 10.714286,10.714286 0 1 1 -9e-6,-0.01367 l -10.714277,0.01367 z" transform="matrix(1.2918288,0,0,1.2918288,1009.0593,-72.685997)" sodipodi:start="0" sodipodi:end="6.2819095" note="&quot;G#&quot;">
      <title id="title3684">G#</title>
    </path>
    <path sodipodi:type="arc" style="fill:#3fb1ea;fill-opacity:1;stroke:none" id="path3026-1-5-2-7-6-9-1-3-9-0-0" sodipodi:cx="-99.285713" sodipodi:cy="96.277069" sodipodi:rx="10.714286" sodipodi:ry="10.714286" d="m -88.571427,96.277069 a 10.714286,10.714286 0 1 1 -9e-6,-0.01367 l -10.714277,0.01367 z" transform="matrix(1.2918288,0,0,1.2918288,1008.345,-104.686)" sodipodi:start="0" sodipodi:end="6.2819095" note="&quot;C#&quot;">
      <title id="title3714">C#</title>
    </path>
    <path sodipodi:type="arc" style="fill:#0f389a;fill-opacity:1;stroke:none;opacity:0;opacity:0" id="path3026-8-7-3-7-1-1" sodipodi:cx="-99.285713" sodipodi:cy="96.277069" sodipodi:rx="10.714286" sodipodi:ry="10.714286" d="m -88.571427,96.277069 a 10.714286,10.714286 0 1 1 -9e-6,-0.01367 l -10.714277,0.01367 z" transform="matrix(1.2918288,0,0,1.2918288,1089.5593,69.385436)" sodipodi:start="0" sodipodi:end="6.2819095" note="&quot;D&quot;">
      <title id="title3576">D</title>
    </path>
    <path sodipodi:type="arc" style="fill:#3fb1ea;fill-opacity:1;stroke:none;opacity:0;opacity:0" id="path3026-1-57-9-3-4-9-84" sodipodi:cx="-99.285713" sodipodi:cy="96.277069" sodipodi:rx="10.714286" sodipodi:ry="10.714286" d="m -88.571427,96.277069 a 10.714286,10.714286 0 1 1 -9e-6,-0.01367 l -10.714277,0.01367 z" transform="matrix(1.2918288,0,0,1.2918288,1089.9164,33.314003)" sodipodi:start="0" sodipodi:end="6.2819095" note="&quot;G&quot;">
      <title id="title3602">G</title>
    </path>
    <path sodipodi:type="arc" style="fill:#0f389a;fill-opacity:1;stroke:none" id="path3026-1-5-6-5-4-2-8-96" sodipodi:cx="-99.285713" sodipodi:cy="96.277069" sodipodi:rx="10.714286" sodipodi:ry="10.714286" d="m -88.571427,96.277069 a 10.714286,10.714286 0 1 1 -9e-6,-0.01367 l -10.714277,0.01367 z" transform="matrix(1.2918288,0,0,1.2918288,1089.9164,-3.1145686)" sodipodi:start="0" sodipodi:end="6.2819095" note="&quot;C&quot;">
      <title id="title3634">C</title>
    </path>
    <path sodipodi:type="arc" style="fill:#0f389a;fill-opacity:1;stroke:none" id="path3026-1-5-2-1-4-1-7-6-3" sodipodi:cx="-99.285713" sodipodi:cy="96.277069" sodipodi:rx="10.714286" sodipodi:ry="10.714286" d="m -88.571427,96.277069 a 10.714286,10.714286 0 1 1 -9e-6,-0.01367 l -10.714277,0.01367 z" transform="matrix(1.2918288,0,0,1.2918288,1090.6307,-38.257425)" sodipodi:start="0" sodipodi:end="6.2819095" note="&quot;F&quot;">
      <title id="title3664">F</title>
    </path>
    <path sodipodi:type="arc" style="fill:#0f389a;fill-opacity:1;stroke:none;opacity:0;opacity:0" id="path3026-1-5-2-7-8-3-1-7-5-7" sodipodi:cx="-99.285713" sodipodi:cy="96.277069" sodipodi:rx="10.714286" sodipodi:ry="10.714286" d="m -88.571427,96.277069 a 10.714286,10.714286 0 1 1 -9e-6,-0.01367 l -10.714277,0.01367 z" transform="matrix(1.2918288,0,0,1.2918288,1089.9164,-72.685997)" sodipodi:start="0" sodipodi:end="6.2819095" note="&quot;A&quot;">
      <title id="title3686">A</title>
    </path>
    <path sodipodi:type="arc" style="fill:#0f389a;fill-opacity:1;stroke:none;opacity:0;opacity:0" id="path3026-1-5-2-7-6-9-1-3-9-0-88" sodipodi:cx="-99.285713" sodipodi:cy="96.277069" sodipodi:rx="10.714286" sodipodi:ry="10.714286" d="m -88.571427,96.277069 a 10.714286,10.714286 0 1 1 -9e-6,-0.01367 l -10.714277,0.01367 z" transform="matrix(1.2918288,0,0,1.2918288,1089.2021,-104.686)" sodipodi:start="0" sodipodi:end="6.2819095" note="&quot;D&quot;">
      <title id="title3716">D</title>
    </path>
    <path sodipodi:type="arc" style="fill:#0f389a;fill-opacity:1;stroke:none" id="path3026-8-7-3-7-1-13" sodipodi:cx="-99.285713" sodipodi:cy="96.277069" sodipodi:rx="10.714286" sodipodi:ry="10.714286" d="m -88.571427,96.277069 a 10.714286,10.714286 0 1 1 -9e-6,-0.01367 l -10.714277,0.01367 z" transform="matrix(1.2918288,0,0,1.2918288,1168.845,69.385436)" sodipodi:start="0" sodipodi:end="6.2819095" note="&quot;D#&quot;">
      <title id="title3578">D#</title>
    </path>
    <path sodipodi:type="arc" style="fill:#0f389a;fill-opacity:1;stroke:none" id="path3026-1-57-9-3-4-9-5" sodipodi:cx="-99.285713" sodipodi:cy="96.277069" sodipodi:rx="10.714286" sodipodi:ry="10.714286" d="m -88.571427,96.277069 a 10.714286,10.714286 0 1 1 -9e-6,-0.01367 l -10.714277,0.01367 z" transform="matrix(1.2918288,0,0,1.2918288,1169.2021,33.314003)" sodipodi:start="0" sodipodi:end="6.2819095" note="&quot;G#&quot;">
      <title id="title3604">G#</title>
    </path>
    <path sodipodi:type="arc" style="fill:#3fb1ea;fill-opacity:1;stroke:none" id="path3026-1-5-6-5-4-2-8-98" sodipodi:cx="-99.285713" sodipodi:cy="96.277069" sodipodi:rx="10.714286" sodipodi:ry="10.714286" d="m -88.571427,96.277069 a 10.714286,10.714286 0 1 1 -9e-6,-0.01367 l -10.714277,0.01367 z" transform="matrix(1.2918288,0,0,1.2918288,1169.2021,-3.1145686)" sodipodi:start="0" sodipodi:end="6.2819095" note="&quot;C#&quot;">
      <title id="title3636">C#</title>
    </path>
    <path sodipodi:type="arc" style="fill:#0f389a;fill-opacity:1;stroke:none" id="path3026-1-5-2-1-4-1-7-6-40" sodipodi:cx="-99.285713" sodipodi:cy="96.277069" sodipodi:rx="10.714286" sodipodi:ry="10.714286" d="m -88.571427,96.277069 a 10.714286,10.714286 0 1 1 -9e-6,-0.01367 l -10.714277,0.01367 z" transform="matrix(1.2918288,0,0,1.2918288,1169.9164,-38.257425)" sodipodi:start="0" sodipodi:end="6.2819095" note="&quot;F#&quot;">
      <title id="title3666">F#</title>
    </path>
    <path sodipodi:type="arc" style="fill:#0f389a;fill-opacity:1;stroke:none" id="path3026-1-5-2-7-8-3-1-7-5-76" sodipodi:cx="-99.285713" sodipodi:cy="96.277069" sodipodi:rx="10.714286" sodipodi:ry="10.714286" d="m -88.571427,96.277069 a 10.714286,10.714286 0 1 1 -9e-6,-0.01367 l -10.714277,0.01367 z" transform="matrix(1.2918288,0,0,1.2918288,1169.2021,-72.685997)" sodipodi:start="0" sodipodi:end="6.2819095" note="&quot;A#&quot;">
      <title id="title3688">A#</title>
    </path>
    <path sodipodi:type="arc" style="fill:#0f389a;fill-opacity:1;stroke:none" id="path3026-1-5-2-7-6-9-1-3-9-0-3" sodipodi:cx="-99.285713" sodipodi:cy="96.277069" sodipodi:rx="10.714286" sodipodi:ry="10.714286" d="m -88.571427,96.277069 a 10.714286,10.714286 0 1 1 -9e-6,-0.01367 l -10.714277,0.01367 z" transform="matrix(1.2918288,0,0,1.2918288,1168.4878,-104.686)" sodipodi:start="0" sodipodi:end="6.2819095" note="&quot;D#&quot;">
      <title id="title3718">D#</title>
    </path>
    <path sodipodi:type="arc" style="fill:#0f389a;fill-opacity:1;stroke:none;opacity:0;opacity:0" id="path3026-8-7-3-7-1-2" sodipodi:cx="-99.285713" sodipodi:cy="96.277069" sodipodi:rx="10.714286" sodipodi:ry="10.714286" d="m -88.571427,96.277069 a 10.714286,10.714286 0 1 1 -9e-6,-0.01367 l -10.714277,0.01367 z" transform="matrix(1.2918288,0,0,1.2918288,1243.7021,69.385436)" sodipodi:start="0" sodipodi:end="6.2819095" note="&quot;E&quot;">
      <title id="title3580">E</title>
    </path>
    <path sodipodi:type="arc" style="fill:#0f389a;fill-opacity:1;stroke:none;opacity:0;opacity:0" id="path3026-1-57-9-3-4-9-09" sodipodi:cx="-99.285713" sodipodi:cy="96.277069" sodipodi:rx="10.714286" sodipodi:ry="10.714286" d="m -88.571427,96.277069 a 10.714286,10.714286 0 1 1 -9e-6,-0.01367 l -10.714277,0.01367 z" transform="matrix(1.2918288,0,0,1.2918288,1244.0593,33.314003)" sodipodi:start="0" sodipodi:end="6.2819095" note="&quot;A&quot;">
      <title id="title3606">A</title>
    </path>
    <path sodipodi:type="arc" style="fill:#0f389a;fill-opacity:1;stroke:none;opacity:0;opacity:0" id="path3026-1-5-6-5-4-2-8-7" sodipodi:cx="-99.285713" sodipodi:cy="96.277069" sodipodi:rx="10.714286" sodipodi:ry="10.714286" d="m -88.571427,96.277069 a 10.714286,10.714286 0 1 1 -9e-6,-0.01367 l -10.714277,0.01367 z" transform="matrix(1.2918288,0,0,1.2918288,1244.0593,-3.1145686)" sodipodi:start="0" sodipodi:end="6.2819095" note="&quot;D&quot;">
      <title id="title3638">D</title>
    </path>
    <path sodipodi:type="arc" style="fill:#3fb1ea;fill-opacity:1;stroke:none;opacity:0;opacity:0" id="path3026-1-5-2-1-4-1-7-6-37" sodipodi:cx="-99.285713" sodipodi:cy="96.277069" sodipodi:rx="10.714286" sodipodi:ry="10.714286" d="m -88.571427,96.277069 a 10.714286,10.714286 0 1 1 -9e-6,-0.01367 l -10.714277,0.01367 z" transform="matrix(1.2918288,0,0,1.2918288,1244.7735,-38.257425)" sodipodi:start="0" sodipodi:end="6.2819095" note="&quot;G&quot;">
      <title id="title3640">G</title>
    </path>
    <path sodipodi:type="arc" style="fill:#0f389a;fill-opacity:1;stroke:none;opacity:0;opacity:0" id="path3026-1-5-2-7-8-3-1-7-5-2" sodipodi:cx="-99.285713" sodipodi:cy="96.277069" sodipodi:rx="10.714286" sodipodi:ry="10.714286" d="m -88.571427,96.277069 a 10.714286,10.714286 0 1 1 -9e-6,-0.01367 l -10.714277,0.01367 z" transform="matrix(1.2918288,0,0,1.2918288,1244.0593,-72.685997)" sodipodi:start="0" sodipodi:end="6.2819095" note="&quot;B&quot;">
      <title id="title3642">B</title>
    </path>
    <path sodipodi:type="arc" style="fill:#0f389a;fill-opacity:1;stroke:none;opacity:0;opacity:0" id="path3026-1-5-2-7-6-9-1-3-9-0-60" sodipodi:cx="-99.285713" sodipodi:cy="96.277069" sodipodi:rx="10.714286" sodipodi:ry="10.714286" d="m -88.571427,96.277069 a 10.714286,10.714286 0 1 1 -9e-6,-0.01367 l -10.714277,0.01367 z" transform="matrix(1.2918288,0,0,1.2918288,1243.345,-104.686)" sodipodi:start="0" sodipodi:end="6.2819095" note="&quot;E&quot;">
      <title id="title3644">E</title>
    </path>
  </g>
</svg>